<svg width="365" height="214" viewBox="0 0 365 214" fill="none" xmlns="http://www.w3.org/2000/svg">
<rect x="6.74943" y="75.3089" width="348" height="80" transform="rotate(-2.5 6.74943 75.3089)" fill="#FF0000" stroke="#FF0000" stroke-width="7"/>
<path d="M39.6309 59.6304C36.5192 59.7663 33.6826 59.3563 31.1212 58.4004C28.6023 57.4427 26.5745 55.9938 25.0378 54.0536C23.501 52.1135 22.6518 49.7803 22.49 47.0541L32.0809 46.6354C32.2888 48.4627 32.9915 49.8841 34.1889 50.8995C35.429 51.913 37.072 52.3751 39.1181 52.2858C41.2067 52.1946 42.8264 51.6327 43.9772 50.6002C45.126 49.5251 45.6651 48.1776 45.5944 46.5578C45.5367 45.2364 45.0843 44.1671 44.2372 43.35C43.39 42.5328 42.3382 41.9168 41.0816 41.5019C39.8657 41.0425 38.1791 40.5609 36.0217 40.0572C33.0859 39.3312 30.6839 38.6033 28.8156 37.8734C26.9881 37.0991 25.3773 35.9096 23.9833 34.3048C22.6301 32.6556 21.8921 30.4244 21.7693 27.611C21.6539 24.9682 22.2141 22.6376 23.4499 20.6191C24.6857 18.6006 26.4748 17.0277 28.8172 15.9005C31.1577 14.7306 33.8625 14.0787 36.9316 13.9447C41.5352 13.7437 45.3143 14.7104 48.2689 16.8449C51.2642 18.9349 52.9986 21.9768 53.4719 25.9706L43.6253 26.4005C43.473 24.8697 42.7574 23.6411 41.4784 22.7147C40.2402 21.7438 38.6194 21.302 36.616 21.3895C34.8683 21.4658 33.4812 21.9748 32.4547 22.9165C31.4707 23.8563 31.016 25.1787 31.0904 26.8838C31.1425 28.0773 31.5699 29.0623 32.3725 29.8386C33.2159 30.5706 34.2242 31.1671 35.3975 31.6284C36.6115 32.0452 38.2981 32.5267 40.4573 33.0731C43.3931 33.799 45.7961 34.5483 47.6662 35.3208C49.5363 36.0933 51.1693 37.3032 52.5652 38.9505C53.961 40.5979 54.7195 42.8069 54.8404 45.5776C54.9446 47.9647 54.4233 50.2082 53.2765 52.3082C52.1297 54.4082 50.3897 56.1284 48.0567 57.4688C45.7217 58.7666 42.9131 59.4871 39.6309 59.6304ZM90.3087 12.2548L90.6241 19.4799L78.7314 19.9991L80.3646 57.4035L71.4131 57.7943L69.78 20.39L57.8873 20.9092L57.5719 13.6841L90.3087 12.2548ZM118.246 56.198C114.068 56.3804 110.189 55.5675 106.608 53.7593C103.027 51.9511 100.138 49.3653 97.9415 46.002C95.7428 42.596 94.5476 38.6977 94.3559 34.3072C94.1661 29.9594 95.0188 26.0144 96.9141 22.4724C98.8076 18.8877 101.459 16.0387 104.869 13.9253C108.279 11.8118 112.072 10.664 116.25 10.4816C120.469 10.2973 124.349 11.1102 127.887 12.9203C131.468 14.7285 134.336 17.3365 136.492 20.7443C138.689 24.1077 139.883 27.9633 140.072 32.3112C140.264 36.7017 139.413 40.6893 137.52 44.2739C135.667 47.8141 133.036 50.6409 129.626 52.7543C126.216 54.8677 122.423 56.0156 118.246 56.198ZM117.897 48.2056C120.582 48.0884 122.922 47.3883 124.916 46.1055C126.908 44.78 128.43 42.9625 129.482 40.6531C130.534 38.3436 130.995 35.697 130.865 32.7132C130.735 29.7294 130.046 27.1543 128.798 24.988C127.549 22.7791 125.875 21.1225 123.777 20.0183C121.678 18.9141 119.287 18.4206 116.601 18.5379C113.916 18.6551 111.555 19.3561 109.518 20.6408C107.524 21.9237 106.001 23.7199 104.949 26.0293C103.895 28.2961 103.433 30.9214 103.563 33.9052C103.693 36.8891 104.383 39.4854 105.633 41.6944C106.882 43.9033 108.557 45.5812 110.657 46.728C112.798 47.8303 115.211 48.3229 117.897 48.2056ZM177.633 22.2793C177.737 24.6664 177.259 26.9294 176.199 29.0683C175.182 31.2053 173.487 32.9663 171.113 34.3512C168.782 35.7342 165.783 36.5057 162.117 36.6658L154.636 36.9924L155.385 54.1281L146.433 54.5189L144.485 9.88941L160.917 9.17195C164.37 9.0212 167.337 9.48955 169.819 10.577C172.3 11.6644 174.184 13.2265 175.468 15.263C176.796 17.2977 177.517 19.6365 177.633 22.2793ZM161.418 29.4574C163.891 29.3495 165.699 28.7153 166.844 27.5549C167.988 26.3519 168.515 24.7273 168.425 22.6813C168.235 18.3334 165.711 16.2656 160.852 16.4778L153.754 16.7876L154.321 29.7673L161.418 29.4574Z" fill="black"/>
<path d="M69.0606 167.329L54.6408 212.673L43.7711 213.148L25.4541 169.233L35.045 168.814L48.8707 203.765L59.5337 167.745L69.0606 167.329ZM82.1002 166.76L84.0487 211.389L75.0973 211.78L73.1487 167.151L82.1002 166.76ZM114.632 210.054L104.026 193.093L99.8062 193.277L100.565 210.668L91.614 211.059L89.6655 166.43L106.418 165.698C109.87 165.547 112.838 166.037 115.322 167.167C117.804 168.255 119.687 169.817 120.972 171.853C122.297 173.845 123.016 176.12 123.128 178.678C123.256 181.619 122.52 184.32 120.919 186.782C119.316 189.201 116.851 190.931 113.522 191.973L124.99 209.602L114.632 210.054ZM99.513 186.563L106.994 186.237C109.424 186.13 111.21 185.476 112.353 184.273C113.495 183.027 114.02 181.36 113.929 179.271C113.839 177.225 113.174 175.674 111.932 174.618C110.688 173.519 108.851 173.023 106.422 173.129L98.9408 173.456L99.513 186.563ZM161.008 176.767C159.903 174.937 158.434 173.57 156.601 172.668C154.768 171.766 152.658 171.367 150.271 171.471C147.628 171.586 145.31 172.285 143.316 173.568C141.322 174.851 139.798 176.626 138.744 178.893C137.69 181.159 137.226 183.742 137.352 186.641C137.483 189.625 138.172 192.2 139.419 194.366C140.71 196.53 142.425 198.164 144.566 199.266C146.707 200.368 149.163 200.859 151.933 200.738C155.343 200.589 158.096 199.572 160.192 197.687C162.286 195.759 163.603 193.161 164.144 189.891L148.798 190.561L148.5 183.72L172.669 182.664L173.009 190.465C172.548 193.603 171.395 196.536 169.55 199.264C167.704 201.993 165.261 204.235 162.22 205.99C159.22 207.702 155.802 208.641 151.965 208.808C147.66 208.996 143.718 208.208 140.139 206.442C136.601 204.632 133.754 202.044 131.6 198.679C129.489 195.312 128.337 191.433 128.145 187.043C127.954 182.652 128.763 178.688 130.573 175.15C132.424 171.567 135.033 168.741 138.402 166.672C141.812 164.559 145.648 163.409 149.911 163.223C154.941 163.003 159.364 164.048 163.18 166.359C166.995 168.627 169.702 171.946 171.302 176.318L161.008 176.767ZM186.099 162.219L188.047 206.849L179.096 207.24L177.147 162.61L186.099 162.219ZM233.784 204.852L224.833 205.243L203.227 175.501L204.564 206.128L195.612 206.518L193.661 161.825L202.613 161.434L224.221 191.24L222.881 160.549L231.833 160.158L233.784 204.852ZM248.354 159.501L250.303 204.131L241.351 204.521L239.403 159.892L248.354 159.501ZM284.863 194.102L267.088 194.878L264.518 203.51L255.119 203.92L269.216 158.526L279.638 158.071L297.638 202.064L288.175 202.477L284.863 194.102ZM282.12 187.046L274.847 168.658L269.205 187.61L282.12 187.046Z" fill="black"/>
<path d="M31.7207 99.125L32.2093 110.314L47.235 109.658L47.5448 116.756L32.5192 117.412L33.0356 129.24L49.9795 128.501L50.2977 135.79L24.4024 136.92L22.451 92.2268L48.3464 91.0962L48.6646 98.3852L31.7207 99.125ZM95.2949 89.1104L80.8751 134.455L70.0054 134.929L51.6885 91.0143L61.2793 90.5956L75.105 125.546L85.768 89.5264L95.2949 89.1104ZM108.335 88.5411L110.283 133.171L101.332 133.561L99.383 88.9319L108.335 88.5411ZM114.697 110.557C114.506 106.166 115.315 102.202 117.125 98.6633C118.976 95.0805 121.564 92.2556 124.891 90.1885C128.258 88.077 132.073 86.9281 136.335 86.742C141.322 86.5243 145.747 87.6123 149.61 90.0061C153.473 92.3999 156.249 95.8234 157.938 100.277L147.644 100.726C146.528 98.6394 145.009 97.1042 143.087 96.1204C141.207 95.1348 139.053 94.6951 136.623 94.8011C134.023 94.9147 131.727 95.6342 129.735 96.9597C127.783 98.2407 126.281 100.015 125.226 102.281C124.215 104.546 123.774 107.171 123.905 110.155C124.033 113.096 124.701 115.672 125.908 117.883C127.155 120.049 128.808 121.706 130.865 122.855C132.963 123.959 135.313 124.455 137.913 124.341C140.342 124.235 142.45 123.609 144.237 122.463C146.064 121.273 147.443 119.59 148.373 117.414L158.667 116.965C157.374 121.591 154.908 125.265 151.268 127.986C147.67 130.663 143.355 132.111 138.326 132.331C134.063 132.517 130.163 131.726 126.627 129.959C123.131 128.147 120.306 125.558 118.152 122.193C116.041 118.826 114.889 114.947 114.697 110.557ZM194.07 84.7978L194.386 92.0229L182.493 92.5422L184.126 129.947L175.175 130.337L173.542 92.933L161.649 93.4522L161.334 86.2271L194.07 84.7978ZM208.274 84.1776L210.223 128.807L201.271 129.198L199.323 84.5685L208.274 84.1776ZM238.524 128.02C234.347 128.202 230.467 127.389 226.887 125.581C223.306 123.773 220.417 121.187 218.22 117.824C216.021 114.418 214.826 110.52 214.634 106.129C214.445 101.781 215.297 97.8363 217.193 94.2943C219.086 90.7096 221.738 87.8605 225.147 85.7471C228.557 83.6337 232.351 82.4858 236.528 82.3034C240.748 82.1192 244.627 82.9321 248.165 84.7421C251.746 86.5503 254.615 89.1584 256.771 92.5662C258.968 95.9296 260.161 99.7852 260.351 104.133C260.543 108.524 259.692 112.511 257.798 116.096C255.946 119.636 253.314 122.463 249.905 124.576C246.495 126.69 242.701 127.838 238.524 128.02ZM238.175 120.028C240.86 119.91 243.2 119.21 245.194 117.927C247.186 116.602 248.708 114.784 249.761 112.475C250.813 110.166 251.274 107.519 251.144 104.535C251.013 101.551 250.324 98.9762 249.077 96.8099C247.827 94.601 246.153 92.9444 244.055 91.8402C241.957 90.736 239.565 90.2425 236.88 90.3598C234.194 90.477 231.833 91.178 229.797 92.4627C227.803 93.7456 226.28 95.5417 225.227 97.8512C224.173 100.118 223.711 102.743 223.842 105.727C223.972 108.711 224.662 111.307 225.911 113.516C227.161 115.725 228.836 117.403 230.936 118.55C233.076 119.652 235.49 120.145 238.175 120.028ZM304.883 124.674L295.932 125.065L274.326 95.3231L275.663 125.95L266.712 126.341L264.76 81.6473L273.712 81.2565L295.32 111.062L293.98 80.3716L302.932 79.9807L304.883 124.674ZM327.879 124.119C324.768 124.254 321.931 123.844 319.37 122.889C316.851 121.931 314.823 120.482 313.286 118.542C311.749 116.602 310.9 114.268 310.738 111.542L320.329 111.124C320.537 112.951 321.24 114.372 322.437 115.388C323.677 116.401 325.32 116.863 327.366 116.774C329.455 116.683 331.075 116.121 332.226 115.088C333.374 114.013 333.914 112.666 333.843 111.046C333.785 109.725 333.333 108.655 332.486 107.838C331.638 107.021 330.587 106.405 329.33 105.99C328.114 105.531 326.427 105.049 324.27 104.545C321.334 103.819 318.932 103.091 317.064 102.362C315.237 101.587 313.626 100.398 312.232 98.793C310.879 97.1438 310.141 94.9125 310.018 92.0992C309.902 89.4564 310.462 87.1257 311.698 85.1072C312.934 83.0887 314.723 81.5159 317.066 80.3886C319.406 79.2188 322.111 78.5668 325.18 78.4328C329.784 78.2318 333.563 79.1986 336.517 81.333C339.513 83.423 341.247 86.465 341.72 90.4588L331.874 90.8887C331.721 89.3579 331.006 88.1293 329.727 87.2028C328.489 86.2319 326.868 85.7902 324.864 85.8777C323.117 85.954 321.73 86.463 320.703 87.4046C319.719 88.3444 319.264 89.6669 319.339 91.3719C319.391 92.5654 319.818 93.5504 320.621 94.3268C321.464 95.0587 322.473 95.6553 323.646 96.1166C324.86 96.5333 326.546 97.0149 328.706 97.5612C331.642 98.2872 334.044 99.0364 335.915 99.8089C337.785 100.581 339.418 101.791 340.814 103.439C342.209 105.086 342.968 107.295 343.089 110.066C343.193 112.453 342.672 114.696 341.525 116.796C340.378 118.896 338.638 120.617 336.305 121.957C333.97 123.255 331.162 123.975 327.879 124.119Z" fill="white"/>
</svg>
