<svg width="365" height="231" viewBox="0 0 365 231" fill="none" xmlns="http://www.w3.org/2000/svg">
<rect x="7.0241" y="91.8423" width="348" height="80" transform="rotate(-2.67828 7.0241 91.8423)" fill="#FF0000" stroke="#FF0000" stroke-width="7"/>
<path d="M37.0773 73.3658C33.966 73.5114 31.1282 73.1102 28.5638 72.1623C26.042 71.2125 24.0097 69.7699 22.4669 67.8345C20.9241 65.8991 20.0676 63.5686 19.8974 60.8429L29.4869 60.3943C29.7005 62.221 30.4076 63.6402 31.6081 64.6519C32.8513 65.6616 34.4958 66.1185 36.5416 66.0228C38.63 65.9252 40.2479 65.3583 41.3954 64.3222C42.5409 63.2435 43.0758 61.8943 43.0001 60.2748C42.9383 58.9536 42.4825 57.8857 41.6329 57.0712C40.7832 56.2566 39.7294 55.6439 38.4715 55.2329C37.2542 54.7773 35.5661 54.301 33.4072 53.804C30.4692 53.0871 28.0649 52.3667 26.1943 51.6426C24.3644 50.874 22.75 49.6895 21.351 48.0891C19.9926 46.4441 19.2477 44.2151 19.1161 41.4022C18.9925 38.7598 19.5454 36.4274 20.7749 34.405C22.0045 32.3827 23.7886 30.8043 26.1275 29.6698C28.4644 28.4926 31.1672 27.8323 34.2358 27.6887C38.8388 27.4734 42.6209 28.4284 45.5821 30.5537C48.5839 32.6343 50.3277 35.6708 50.8135 39.6632L40.9682 40.1237C40.8112 38.5934 40.0918 37.367 38.8099 36.4445C37.5687 35.4775 35.9466 35.0408 33.9434 35.1345C32.196 35.2163 30.8105 35.7296 29.7868 36.6744C28.8058 37.6173 28.3552 38.9411 28.4349 40.6459C28.4908 41.8393 28.9212 42.8229 29.7262 43.5968C30.5719 44.3261 31.5821 44.9195 32.7567 45.3771C33.972 45.7901 35.6601 46.2664 37.821 46.8061C40.7591 47.5229 43.1644 48.2646 45.0369 49.0313C46.9094 49.798 48.5462 51.0028 49.9472 52.6458C51.3481 54.2888 52.1134 56.4955 52.243 59.2658C52.3547 61.6525 51.8403 63.8976 50.7001 66.0012C49.5598 68.1048 47.8252 69.8304 45.4963 71.178C43.1654 72.4831 40.359 73.2123 37.0773 73.3658ZM87.6074 25.8328L87.9453 33.0569L76.0543 33.6131L77.8038 71.0122L68.8536 71.4309L67.1041 34.0318L55.2131 34.588L54.8752 27.3639L87.6074 25.8328ZM115.681 69.6889C111.504 69.8842 107.622 69.0834 104.036 67.2864C100.449 65.4893 97.5524 62.9125 95.3452 59.556C93.1359 56.1569 91.9286 52.2624 91.7233 47.8725C91.5199 43.5253 92.3603 39.5777 94.2446 36.0297C96.1269 32.4392 98.7696 29.5819 102.173 27.4579C105.576 25.3339 109.366 24.1742 113.543 23.9788C117.762 23.7815 121.644 24.5823 125.188 26.3813C128.774 28.1784 131.651 30.7774 133.817 34.1786C136.025 37.5351 137.23 41.387 137.433 45.7342C137.639 50.1241 136.8 54.1143 134.918 57.7049C133.076 61.2508 130.454 64.0858 127.051 66.2098C123.648 68.3338 119.858 69.4935 115.681 69.6889ZM115.307 61.6976C117.992 61.572 120.33 60.8647 122.32 59.5756C124.307 58.2439 125.824 56.4217 126.869 54.109C127.914 51.7963 128.367 49.1483 128.227 46.1649C128.088 43.1815 127.391 40.6086 126.136 38.4462C124.88 36.2411 123.201 34.5898 121.099 33.4921C118.998 32.3945 116.604 31.9084 113.919 32.034C111.234 32.1596 108.876 32.868 106.843 34.159C104.853 35.4481 103.336 37.2489 102.29 39.5616C101.243 41.8317 100.79 44.4585 100.929 47.4419C101.069 50.4253 101.767 53.0195 103.023 55.2245C104.28 57.4295 105.96 59.1022 108.063 60.2425C110.207 61.3382 112.622 61.8232 115.307 61.6976ZM174.962 35.5855C175.074 37.9722 174.603 40.2367 173.55 42.3789C172.54 44.5191 170.85 46.2854 168.48 47.6776C166.153 49.0679 163.157 49.8487 159.492 50.0202L152.012 50.3701L152.813 67.5034L143.863 67.922L141.776 23.2988L158.206 22.5302C161.658 22.3688 164.627 22.8279 167.112 23.9076C169.597 24.9873 171.485 26.5435 172.776 28.576C174.11 30.6066 174.838 32.9431 174.962 35.5855ZM158.77 42.814C161.242 42.6984 163.049 42.0586 164.19 40.8947C165.33 39.6881 165.852 38.0619 165.756 36.0162C165.553 31.6689 163.022 29.6089 158.163 29.8362L151.067 30.1682L151.674 43.146L158.77 42.814Z" fill="white"/>
<path d="M66.9671 183.646L52.6884 229.035L41.8203 229.543L23.3668 185.686L32.9563 185.237L46.8906 220.144L57.4415 184.092L66.9671 183.646ZM80.0048 183.036L82.0923 227.659L73.142 228.078L71.0546 183.455L80.0048 183.036ZM112.671 226.229L102.013 209.3L97.7933 209.498L98.6067 226.887L89.6565 227.305L87.5691 182.682L104.319 181.899C107.771 181.737 110.741 182.218 113.228 183.34C115.713 184.42 117.601 185.976 118.892 188.008C120.224 189.996 120.949 192.269 121.069 194.826C121.207 197.767 120.479 200.471 118.886 202.937C117.291 205.361 114.83 207.099 111.505 208.152L123.028 225.744L112.671 226.229ZM97.4792 202.785L104.959 202.435C107.388 202.322 109.173 201.661 110.312 200.455C111.45 199.206 111.97 197.537 111.872 195.449C111.776 193.403 111.106 191.854 109.861 190.801C108.614 189.707 106.775 189.216 104.346 189.33L96.8662 189.679L97.4792 202.785ZM158.944 192.798C157.833 190.971 156.36 189.609 154.524 188.712C152.688 187.816 150.577 187.423 148.19 187.535C145.548 187.658 143.231 188.365 141.241 189.654C139.252 190.943 137.733 192.722 136.686 194.993C135.639 197.263 135.183 199.847 135.319 202.745C135.458 205.728 136.155 208.301 137.41 210.464C138.707 212.624 140.427 214.252 142.572 215.348C144.716 216.443 147.173 216.926 149.943 216.797C153.353 216.637 156.103 215.612 158.193 213.72C160.28 211.786 161.59 209.183 162.12 205.912L146.777 206.63L146.457 199.789L170.622 198.659L170.987 206.458C170.536 209.597 169.392 212.534 167.555 215.268C165.718 218.002 163.282 220.252 160.246 222.017C157.252 223.738 153.836 224.688 150 224.867C145.696 225.068 141.751 224.292 138.167 222.537C134.623 220.738 131.768 218.16 129.604 214.801C127.482 211.441 126.318 207.565 126.113 203.176C125.907 198.786 126.704 194.819 128.503 191.275C130.343 187.686 132.944 184.852 136.307 182.773C139.71 180.649 143.542 179.487 147.804 179.288C152.833 179.053 157.26 180.084 161.083 182.383C164.905 184.639 167.623 187.95 169.236 192.317L158.944 192.798ZM183.989 178.172L186.076 222.795L177.126 223.214L175.038 178.591L183.989 178.172ZM231.807 220.656L222.856 221.074L201.158 191.4L202.59 222.023L193.64 222.441L191.55 177.754L200.5 177.335L222.201 207.074L220.766 176.387L229.716 175.969L231.807 220.656ZM246.236 175.26L248.323 219.883L239.373 220.302L237.285 175.679L246.236 175.26ZM282.852 209.747L265.079 210.578L262.536 219.218L253.138 219.658L267.094 174.22L277.515 173.733L295.652 217.669L286.19 218.112L282.852 209.747ZM280.087 202.7L272.757 184.335L267.173 203.304L280.087 202.7Z" fill="white"/>
<path d="M32.5789 115.537L33.1023 126.724L48.1258 126.022L48.4578 133.118L33.4342 133.821L33.9875 145.648L50.9289 144.855L51.2699 152.143L25.3782 153.354L23.2878 108.667L49.1795 107.456L49.5204 114.744L32.5789 115.537ZM96.1216 105.324L81.8429 150.713L70.9748 151.221L52.5213 107.364L62.1108 106.915L76.0452 141.822L86.596 105.77L96.1216 105.324ZM109.159 104.714L111.247 149.338L102.297 149.756L100.209 105.133L109.159 104.714ZM115.591 126.71C115.385 122.32 116.182 118.353 117.981 114.809C119.821 111.221 122.401 108.388 125.721 106.31C129.081 104.188 132.892 103.028 137.154 102.828C142.141 102.595 146.569 103.669 150.439 106.051C154.31 108.433 157.096 111.848 158.799 116.296L148.507 116.777C147.384 114.694 145.86 113.163 143.935 112.186C142.052 111.206 139.897 110.773 137.467 110.886C134.867 111.008 132.573 111.735 130.586 113.066C128.638 114.353 127.141 116.132 126.094 118.402C125.09 120.67 124.657 123.296 124.797 126.279C124.934 129.22 125.61 131.794 126.824 134.001C128.078 136.163 129.736 137.816 131.797 138.958C133.898 140.056 136.249 140.544 138.849 140.422C141.278 140.308 143.384 139.676 145.167 138.525C146.991 137.329 148.364 135.642 149.287 133.463L159.58 132.981C158.301 137.611 155.847 141.293 152.216 144.025C148.625 146.713 144.316 148.175 139.287 148.41C135.025 148.61 131.123 147.831 127.581 146.075C124.079 144.274 121.246 141.694 119.082 138.335C116.96 134.975 115.796 131.1 115.591 126.71ZM194.883 100.704L195.221 107.928L183.33 108.485L185.08 145.884L176.129 146.302L174.38 108.903L162.489 109.46L162.151 102.236L194.883 100.704ZM209.085 100.04L211.173 144.663L202.222 145.082L200.135 100.459L209.085 100.04ZM239.471 143.788C235.294 143.983 231.413 143.182 227.826 141.385C224.239 139.588 221.343 137.012 219.135 133.655C216.926 130.256 215.719 126.361 215.513 121.972C215.31 117.624 216.151 113.677 218.035 110.129C219.917 106.538 222.56 103.681 225.963 101.557C229.366 99.433 233.156 98.2733 237.333 98.0779C241.552 97.8805 245.434 98.6814 248.978 100.48C252.564 102.277 255.441 104.877 257.608 108.278C259.815 111.634 261.02 115.486 261.223 119.833C261.429 124.223 260.59 128.213 258.708 131.804C256.866 135.35 254.244 138.185 250.841 140.309C247.438 142.433 243.648 143.593 239.471 143.788ZM239.097 135.797C241.782 135.671 244.12 134.964 246.11 133.675C248.098 132.343 249.614 130.521 250.659 128.208C251.704 125.895 252.157 123.247 252.018 120.264C251.878 117.281 251.181 114.708 249.927 112.545C248.67 110.34 246.991 108.689 244.89 107.591C242.788 106.494 240.395 106.008 237.71 106.133C235.025 106.259 232.666 106.967 230.633 108.258C228.643 109.547 227.126 111.348 226.081 113.661C225.034 115.931 224.58 118.558 224.719 121.541C224.859 124.524 225.557 127.119 226.813 129.324C228.07 131.529 229.75 133.201 231.853 134.342C233.998 135.437 236.412 135.922 239.097 135.797ZM305.82 140.236L296.869 140.654L275.171 110.98L276.603 141.602L267.653 142.021L265.563 97.334L274.513 96.9153L296.214 126.654L294.779 95.9673L303.729 95.5486L305.82 140.236ZM328.814 139.609C325.703 139.754 322.865 139.353 320.3 138.405C317.778 137.455 315.746 136.013 314.203 134.077C312.661 132.142 311.804 129.811 311.634 127.086L321.223 126.637C321.437 128.464 322.144 129.883 323.345 130.895C324.588 131.904 326.232 132.361 328.278 132.266C330.367 132.168 331.984 131.601 333.132 130.565C334.277 129.486 334.812 128.137 334.737 126.518C334.675 125.196 334.219 124.128 333.369 123.314C332.52 122.499 331.466 121.887 330.208 121.476C328.991 121.02 327.303 120.544 325.144 120.047C322.206 119.33 319.801 118.609 317.931 117.885C316.101 117.117 314.487 115.932 313.088 114.332C311.729 112.687 310.984 110.458 310.853 107.645C310.729 105.003 311.282 102.67 312.511 100.648C313.741 98.6255 315.525 97.047 317.864 95.9125C320.201 94.7354 322.904 94.075 325.972 93.9315C330.575 93.7161 334.357 94.6711 337.319 96.7964C340.32 98.8771 342.064 101.914 342.55 105.906L332.705 106.366C332.548 104.836 331.828 103.61 330.546 102.687C329.305 101.72 327.683 101.284 325.68 101.377C323.933 101.459 322.547 101.972 321.523 102.917C320.542 103.86 320.092 105.184 320.171 106.889C320.227 108.082 320.658 109.066 321.463 109.84C322.308 110.569 323.319 111.162 324.493 111.62C325.709 112.033 327.397 112.509 329.558 113.049C332.496 113.766 334.901 114.507 336.773 115.274C338.646 116.041 340.283 117.246 341.684 118.889C343.085 120.532 343.85 122.738 343.98 125.509C344.091 127.895 343.577 130.14 342.437 132.244C341.296 134.348 339.562 136.073 337.233 137.421C334.902 138.726 332.096 139.455 328.814 139.609Z" fill="white"/>
</svg>
